<svg width="1199" height="653" viewBox="0 0 1199 653" fill="none" xmlns="http://www.w3.org/2000/svg">
<g style="mix-blend-mode:multiply" opacity="0.1">
<path d="M-1 68.0005L1599 68.0005" stroke="#480512"/>
<path d="M-1 156.001L1599 156.001" stroke="#480512"/>
<path d="M-1 244.001L1599 244.001" stroke="#480512"/>
<path d="M-1 332.001L1599 332.001" stroke="#480512"/>
<path d="M-1 420.001L1599 420.001" stroke="#480512"/>
<path d="M-1 508.001L1599 508.001" stroke="#480512"/>
<path d="M-1 596.001L1599 596.001" stroke="#480512"/>
<path d="M7 850L7.00004 -49" stroke="#480512"/>
<path d="M95 850L95 -49" stroke="#480512"/>
<path d="M183 850L183 -49" stroke="#480512"/>
<path d="M271 850L271 -49" stroke="#480512"/>
<path d="M359 850L359 -49" stroke="#480512"/>
<path d="M447 850L447 -49" stroke="#480512"/>
<path d="M535 850L535 -49" stroke="#480512"/>
<path d="M623 850L623 -49" stroke="#480512"/>
<path d="M711 850L711 -49" stroke="#480512"/>
<path d="M799 850L799 -49" stroke="#480512"/>
<path d="M887 850L887 -49" stroke="#480512"/>
<path d="M975.001 850L975.001 -49" stroke="#480512"/>
<path d="M1063 850L1063 -49" stroke="#480512"/>
<path d="M1151 850L1151 -49" stroke="#480512"/>
</g>
</svg>
